<svg fill="none" height="40" viewBox="0 0 40 40" width="40" xmlns="http://www.w3.org/2000/svg"><path d="m20 0c-3.9556 0-7.8224 1.17298-11.1114 3.37061-3.28898 2.19762-5.85243 5.3212-7.36618 8.97569-1.51375432 3.6545-1.909821 7.6759-1.138117 11.5555.771707 3.8796 2.676517 7.4433 5.473567 10.2403 2.79705 2.7971 6.36073 4.7019 10.24033 5.4736s7.901.3756 11.5555-1.1381c3.6545-1.5138 6.7781-4.0772 8.9757-7.3662s3.3706-7.1558 3.3706-11.1114c0-2.6264-.5173-5.2272-1.5224-7.6537-1.0051-2.42648-2.4783-4.63127-4.3355-6.48844-1.8571-1.85717-4.0619-3.33036-6.4884-4.33545-2.4265-1.005095-5.0273-1.52241-7.6537-1.52241zm6.42 23.58c.1875.1859.3363.4071.4378.6508.1015.2438.1538.5052.1538.7692s-.0523.5254-.1538.7691c-.1015.2438-.2503.465-.4378.6509-.1859.1874-.4071.3362-.6508.4378-.2438.1015-.5052.1538-.7692.1538s-.5254-.0523-.7691-.1538c-.2438-.1016-.465-.2504-.6509-.4378l-3.58-3.6-3.58 3.6c-.1859.1874-.4071.3362-.6508.4378-.2438.1015-.5052.1538-.7692.1538s-.5254-.0523-.7691-.1538c-.2438-.1016-.465-.2504-.6509-.4378-.1875-.1859-.3362-.4071-.4378-.6509-.1015-.2437-.1538-.5051-.1538-.7691s.0523-.5254.1538-.7692c.1016-.2437.2503-.4649.4378-.6508l3.6-3.58-3.6-3.58c-.3766-.3766-.5882-.8874-.5882-1.42s.2116-1.0434.5882-1.42.8874-.5882 1.42-.5882 1.0434.2116 1.42.5882l3.58 3.6 3.58-3.6c.3766-.3766.8874-.5882 1.42-.5882s1.0434.2116 1.42.5882.5882.8874.5882 1.42-.2116 1.0434-.5882 1.42l-3.6 3.58z" fill="#ef4123"/></svg>