<svg width="40" height="40" viewBox="0 0 40 40" fill="none" xmlns="http://www.w3.org/2000/svg">
<path d="M33.4375 15.7812C33.4375 15.2951 33.2812 14.8958 32.9688 14.5833L30.599 12.2396C30.2691 11.9097 29.8785 11.7448 29.4271 11.7448C28.9757 11.7448 28.5851 11.9097 28.2552 12.2396L17.6302 22.8385L11.7448 16.9531C11.4149 16.6233 11.0243 16.4583 10.5729 16.4583C10.1215 16.4583 9.7309 16.6233 9.40104 16.9531L7.03125 19.2969C6.71875 19.6094 6.5625 20.0087 6.5625 20.4948C6.5625 20.9635 6.71875 21.3542 7.03125 21.6667L16.4583 31.0938C16.7882 31.4236 17.1788 31.5885 17.6302 31.5885C18.099 31.5885 18.4983 31.4236 18.8281 31.0938L32.9688 16.9531C33.2812 16.6406 33.4375 16.25 33.4375 15.7812ZM40 20C40 23.6285 39.1059 26.9748 37.3177 30.0391C35.5295 33.1033 33.1033 35.5295 30.0391 37.3177C26.9748 39.1059 23.6285 40 20 40C16.3715 40 13.0252 39.1059 9.96094 37.3177C6.8967 35.5295 4.47049 33.1033 2.68229 30.0391C0.894097 26.9748 0 23.6285 0 20C0 16.3715 0.894097 13.0252 2.68229 9.96094C4.47049 6.8967 6.8967 4.47049 9.96094 2.68229C13.0252 0.894097 16.3715 0 20 0C23.6285 0 26.9748 0.894097 30.0391 2.68229C33.1033 4.47049 35.5295 6.8967 37.3177 9.96094C39.1059 13.0252 40 16.3715 40 20Z" fill="#C1E400"/>
</svg>
